<svg width="158" height="33" viewBox="0 0 158 33" fill="none" xmlns="http://www.w3.org/2000/svg">
<rect width="158" height="33" rx="4" fill="#5661CB"/>
<path d="M29.7949 12.0469V22H28.4756V12.0469H29.7949ZM35.9268 12.0469L31.6064 17.5225H29.2686L29.0635 16.4287H30.8203L34.293 12.0469H35.9268ZM34.6006 22L30.8613 17.3516L31.5996 16.1963L36.2139 22H34.6006ZM39.0234 21.2344L41.0811 14.6035H42.4346L39.4678 23.1416C39.3994 23.3239 39.3083 23.5199 39.1943 23.7295C39.085 23.9437 38.9437 24.1465 38.7705 24.3379C38.5973 24.5293 38.3877 24.6842 38.1416 24.8027C37.9001 24.9258 37.6107 24.9873 37.2734 24.9873C37.1732 24.9873 37.0456 24.9736 36.8906 24.9463C36.7357 24.9189 36.6263 24.8962 36.5625 24.8779L36.5557 23.8525C36.5921 23.8571 36.6491 23.8617 36.7266 23.8662C36.8086 23.8753 36.8656 23.8799 36.8975 23.8799C37.1846 23.8799 37.4284 23.8411 37.6289 23.7637C37.8294 23.6908 37.998 23.5654 38.1348 23.3877C38.276 23.2145 38.3968 22.9753 38.4971 22.6699L39.0234 21.2344ZM37.5127 14.6035L39.4336 20.3457L39.7617 21.6787L38.8525 22.1436L36.1318 14.6035H37.5127ZM48.5049 14.6035V15.6494H44.7656V14.6035H48.5049ZM44.9502 14.6035V22H43.6855V14.6035H44.9502ZM49.626 14.6035V22H48.3545V14.6035H49.626ZM53.0234 19.9971L56.4346 14.6035H57.7061V22H56.4346V16.6064L53.0234 22H51.7656V14.6035H53.0234V19.9971ZM62.751 14.6035V22H61.4795V14.6035H62.751ZM65.2324 14.6035V15.6289H59.0459V14.6035H65.2324ZM67.5156 17.1465H69.7373C70.3343 17.1465 70.8379 17.2513 71.248 17.4609C71.6582 17.666 71.9681 17.9508 72.1777 18.3154C72.3919 18.6755 72.499 19.0856 72.499 19.5459C72.499 19.8877 72.4398 20.209 72.3213 20.5098C72.2028 20.806 72.0251 21.0658 71.7881 21.2891C71.5557 21.5124 71.2663 21.6878 70.9199 21.8154C70.5781 21.9385 70.1839 22 69.7373 22H66.5928V14.6035H67.8574V20.9609H69.7373C70.1019 20.9609 70.3936 20.8949 70.6123 20.7627C70.8311 20.6305 70.9883 20.4596 71.084 20.25C71.1797 20.0404 71.2275 19.8216 71.2275 19.5938C71.2275 19.3704 71.1797 19.1517 71.084 18.9375C70.9883 18.7233 70.8311 18.5456 70.6123 18.4043C70.3936 18.2585 70.1019 18.1855 69.7373 18.1855H67.5156V17.1465ZM81.0234 18.7461H78.5967L78.583 17.7344H80.5654C80.9574 17.7344 81.2832 17.6956 81.543 17.6182C81.8073 17.5407 82.0055 17.4245 82.1377 17.2695C82.2699 17.1146 82.3359 16.9232 82.3359 16.6953C82.3359 16.5176 82.2972 16.3626 82.2197 16.2305C82.1468 16.0938 82.0352 15.9821 81.8848 15.8955C81.7344 15.8044 81.5475 15.7383 81.3242 15.6973C81.1055 15.6517 80.848 15.6289 80.5518 15.6289H78.9316V22H77.667V14.6035H80.5518C81.0212 14.6035 81.4427 14.6445 81.8164 14.7266C82.1947 14.8086 82.516 14.9339 82.7803 15.1025C83.0492 15.2666 83.2542 15.4762 83.3955 15.7314C83.5368 15.9867 83.6074 16.2874 83.6074 16.6338C83.6074 16.8571 83.5618 17.069 83.4707 17.2695C83.3796 17.4701 83.2451 17.6478 83.0674 17.8027C82.8896 17.9577 82.6709 18.0853 82.4111 18.1855C82.1514 18.2812 81.8529 18.3428 81.5156 18.3701L81.0234 18.7461ZM81.0234 22H78.1387L78.7676 20.9746H81.0234C81.3743 20.9746 81.666 20.9313 81.8984 20.8447C82.1309 20.7536 82.304 20.626 82.418 20.4619C82.5365 20.2933 82.5957 20.0928 82.5957 19.8604C82.5957 19.6279 82.5365 19.4297 82.418 19.2656C82.304 19.097 82.1309 18.9694 81.8984 18.8828C81.666 18.7917 81.3743 18.7461 81.0234 18.7461H79.1025L79.1162 17.7344H81.5156L81.9736 18.1172C82.3792 18.1491 82.7233 18.2493 83.0059 18.418C83.2884 18.5866 83.5026 18.8008 83.6484 19.0605C83.7943 19.3158 83.8672 19.5938 83.8672 19.8945C83.8672 20.2409 83.8011 20.5462 83.6689 20.8105C83.5413 21.0749 83.3545 21.2959 83.1084 21.4736C82.8623 21.6468 82.5638 21.779 82.2129 21.8701C81.862 21.9567 81.4655 22 81.0234 22ZM93.0547 11.9922V22H91.79V13.5713L89.2402 14.501V13.3594L92.8564 11.9922H93.0547ZM101.757 14.6035V22H100.492V14.6035H101.757ZM106.61 14.6035L103.104 18.8418H101.333L101.142 17.7344H102.591L105.072 14.6035H106.61ZM105.25 22L102.529 18.6504L103.343 17.7344L106.856 22H105.25ZM112.899 14.6035V15.6494H109.324V14.6035H112.899ZM114.014 14.6035V22H112.749V14.6035H114.014ZM109.017 14.6035H110.288L110.097 18.1719C110.065 18.7233 110.012 19.2109 109.939 19.6348C109.871 20.054 109.775 20.4141 109.652 20.7148C109.534 21.0156 109.383 21.2617 109.201 21.4531C109.023 21.64 108.809 21.779 108.559 21.8701C108.308 21.9567 108.019 22 107.69 22H107.294V20.8857L107.567 20.8652C107.763 20.8516 107.93 20.806 108.066 20.7285C108.208 20.651 108.326 20.5371 108.422 20.3867C108.518 20.2318 108.595 20.0335 108.654 19.792C108.718 19.5505 108.766 19.2633 108.798 18.9307C108.834 18.598 108.862 18.2106 108.88 17.7686L109.017 14.6035ZM117.418 19.9971L120.829 14.6035H122.101V22H120.829V16.6064L117.418 22H116.16V14.6035H117.418V19.9971ZM125.505 14.6035V22H124.24V14.6035H125.505ZM130.358 14.6035L126.852 18.8418H125.081L124.89 17.7344H126.339L128.82 14.6035H130.358ZM128.998 22L126.277 18.6504L127.091 17.7344L130.604 22H128.998Z" fill="white"/>
</svg>
