<svg width="6" height="12" viewBox="0 0 6 12" fill="none" xmlns="http://www.w3.org/2000/svg">
<path fill-rule="evenodd" clip-rule="evenodd" d="M0.125877 0.833717C0.165677 0.794178 0.212958 0.762809 0.265012 0.741405C0.317066 0.720002 0.37287 0.708984 0.429228 0.708984C0.485585 0.708984 0.541389 0.720002 0.593443 0.741405C0.645497 0.762809 0.692779 0.794178 0.732579 0.833717L5.87412 5.92852C5.91402 5.96796 5.94568 6.01481 5.96728 6.06639C5.98888 6.11797 6 6.17327 6 6.22911C6 6.28496 5.98888 6.34025 5.96728 6.39184C5.94568 6.44342 5.91402 6.49027 5.87412 6.52971L0.732579 11.6245C0.652125 11.7042 0.543006 11.749 0.429228 11.749C0.315449 11.749 0.20633 11.7042 0.125877 11.6245C0.0454229 11.5448 0.000224329 11.4367 0.000224329 11.3239C0.000224329 11.2112 0.0454229 11.103 0.125877 11.0233L4.96493 6.22911L0.125877 1.4349C0.0859754 1.39547 0.0543181 1.34861 0.0327181 1.29703C0.0111181 1.24545 0 1.19016 0 1.13431C0 1.07847 0.0111181 1.02317 0.0327181 0.971588C0.0543181 0.920007 0.0859754 0.873156 0.125877 0.833717Z" fill="#5661CB"/>
</svg>
