<svg width="13" height="17" viewBox="0 0 13 17" fill="none" xmlns="http://www.w3.org/2000/svg">
<path d="M8.47648 16.189C8.34471 16.1538 8.21702 16.1044 8.0956 16.0418C5.77575 14.8805 3.82666 13.0791 2.47266 10.845C1.15819 8.61719 0.509071 6.05115 0.603831 3.45735C0.61924 3.13503 0.716256 2.82216 0.885544 2.54883C1.05483 2.2755 1.2907 2.05091 1.57044 1.89667L3.53221 0.781147C3.63206 0.725533 3.74237 0.691879 3.85592 0.68238C3.96948 0.672881 4.08373 0.687752 4.19123 0.72602C4.30207 0.768141 4.40245 0.834353 4.48532 0.92C4.5682 1.00565 4.63154 1.10865 4.67091 1.22176L5.87647 4.67534C5.9207 4.80867 5.92152 4.95287 5.87881 5.0867C5.8361 5.22054 5.75212 5.33696 5.63923 5.41881L4.34854 6.35088C4.51448 7.33335 4.8653 8.27433 5.38189 9.12259C5.88782 9.99387 6.55393 10.7588 7.34416 11.3759L8.81596 10.7165C8.93948 10.6615 9.07658 10.6459 9.20904 10.6718C9.34151 10.6977 9.46306 10.7638 9.55755 10.8613L12.0194 13.5817C12.1052 13.6699 12.1702 13.7768 12.2094 13.8941C12.2487 14.0114 12.2613 14.1362 12.2462 14.2592C12.2311 14.3821 12.1887 14.5 12.1222 14.604C12.0558 14.708 11.967 14.7954 11.8625 14.8597L9.93888 15.9895C9.72013 16.1188 9.47831 16.203 9.22733 16.2372C8.97636 16.2715 8.72117 16.2551 8.47648 16.189ZM3.92621 1.4961L1.96444 2.61163C1.80726 2.69764 1.67488 2.82363 1.58033 2.97721C1.48577 3.13078 1.4323 3.30664 1.42516 3.4875C1.33168 5.92022 1.93555 8.32831 3.16379 10.4208C4.43811 12.5228 6.27245 14.2174 8.45559 15.3095C8.62072 15.3926 8.80363 15.4329 8.98791 15.4267C9.17219 15.4206 9.35208 15.3682 9.51147 15.2743L11.4351 14.1444L9.05776 11.5185L7.47635 12.2296C7.41588 12.2566 7.34981 12.2681 7.2839 12.2633C7.218 12.2585 7.15426 12.2374 7.09824 12.2019C6.1152 11.5089 5.29543 10.6043 4.69759 9.55288C4.06126 8.53519 3.65995 7.38504 3.52359 6.18825C3.52292 6.1178 3.54015 6.04836 3.57363 5.98661C3.60711 5.92486 3.65571 5.87287 3.71475 5.83566L5.10344 4.83189L3.92621 1.4961Z" fill="#5661CB"/>
</svg>
